<svg xmlns="http://www.w3.org/2000/svg" viewBox="0 0 20 20" shape-rendering="crispEdges">
  <!-- Foundation -->
  <rect x="2" y="14" width="16" height="5" fill="#6B5B4F"/>
  <rect x="2" y="14" width="16" height="1" fill="#7D6B5D"/>
  <!-- Walls -->
  <rect x="3" y="6" width="14" height="8" fill="#C4956A"/>
  <!-- Roof -->
  <rect x="1" y="4" width="18" height="2" fill="#8B4513"/>
  <rect x="2" y="4" width="16" height="1" fill="#A0522D"/>
  <!-- Door -->
  <rect x="8" y="10" width="4" height="4" fill="#5B3A1E"/>
  <rect x="10" y="11" width="1" height="1" fill="#8B6914"/>
  <!-- Left window + books -->
  <rect x="4" y="7" width="3" height="3" fill="#87CEEB"/>
  <rect x="4" y="9" width="1" height="1" fill="#CD5C5C"/>
  <rect x="5" y="8" width="1" height="2" fill="#4682B4"/>
  <rect x="6" y="9" width="1" height="1" fill="#6B8E23"/>
  <!-- Right window + books -->
  <rect x="13" y="7" width="3" height="3" fill="#87CEEB"/>
  <rect x="13" y="9" width="1" height="1" fill="#DAA520"/>
  <rect x="14" y="8" width="1" height="2" fill="#8B008B"/>
  <rect x="15" y="9" width="1" height="1" fill="#CD853F"/>
  <!-- Sign -->
  <rect x="6" y="6" width="8" height="2" fill="#F5DEB3"/>
  <rect x="7" y="7" width="1" height="1" fill="#333"/>
  <rect x="9" y="7" width="1" height="1" fill="#333"/>
  <rect x="11" y="7" width="1" height="1" fill="#333"/>
</svg>
