<svg xmlns="http://www.w3.org/2000/svg" viewBox="0 0 20 20" shape-rendering="crispEdges">
  <!-- Dark ground -->
  <rect x="0" y="0" width="20" height="20" fill="#3A3A3A"/>
  <rect x="2" y="5" width="3" height="2" fill="#333333"/>
  <rect x="12" y="12" width="4" height="3" fill="#333333"/>
  <rect x="7" y="16" width="5" height="2" fill="#2E2E2E"/>
  <!-- Gold sparkle dots -->
  <rect x="3" y="3" width="1" height="1" fill="#FFD700"/>
  <rect x="8" y="2" width="1" height="1" fill="#FFED4A"/>
  <rect x="15" y="4" width="1" height="1" fill="#FFD700"/>
  <rect x="5" y="7" width="1" height="1" fill="#FFED4A"/>
  <rect x="11" y="6" width="1" height="1" fill="#FFD700"/>
  <rect x="17" y="8" width="1" height="1" fill="#FFC200"/>
  <rect x="2" y="11" width="1" height="1" fill="#FFD700"/>
  <rect x="9" y="10" width="1" height="1" fill="#FFED4A"/>
  <rect x="14" y="11" width="1" height="1" fill="#FFD700"/>
  <rect x="6" y="14" width="1" height="1" fill="#FFC200"/>
  <rect x="12" y="15" width="1" height="1" fill="#FFED4A"/>
  <rect x="16" y="16" width="1" height="1" fill="#FFD700"/>
  <rect x="4" y="17" width="1" height="1" fill="#FFD700"/>
  <rect x="10" y="18" width="1" height="1" fill="#FFED4A"/>
  <!-- Brighter highlight sparkles -->
  <rect x="7" y="5" width="1" height="1" fill="#FFFFFF"/>
  <rect x="13" y="9" width="1" height="1" fill="#FFFFFF"/>
  <rect x="3" y="15" width="1" height="1" fill="#FFFFFF"/>
</svg>
